{
  "asset": {
    "generator": "Khronos glTF Blender I/O v1.5.17",
    "version": "2.0"
  },
  "extensionsUsed": [
    "KHR_materials_unlit"
  ],
  "scene": 0,
  "scenes": [
    {
      "name": "Scene",
      "nodes": [
        0,
        1,
        2,
        3,
        4
      ]
    }
  ],
  "nodes": [
    {
      "mesh": 0,
      "name": "mesh_0",
      "scale": [
        2.8539528846740723,
        2.8539528846740723,
        2.8539528846740723
      ],
      "translation": [
        0.049979209899902344,
        0.9695758819580078,
        0.4046907424926758
      ]
    },
    {
      "mesh": 1,
      "name": "mesh_2",
      "scale": [
        2.8539528846740723,
        2.8539528846740723,
        2.8539528846740723
      ],
      "translation": [
        0.049979209899902344,
        0.9695758819580078,
        0.4046907424926758
      ]
    },
    {
      "mesh": 2,
      "name": "mesh_1",
      "scale": [
        2.8539528846740723,
        2.8539528846740723,
        2.8539528846740723
      ],
      "translation": [
        0.049979209899902344,
        0.9695758819580078,
        0.4046907424926758
      ]
    },
    {
      "mesh": 3,
      "name": "mesh_3",
      "scale": [
        2.8539528846740723,
        2.8539528846740723,
        2.8539528846740723
      ],
      "translation": [
        0.049979209899902344,
        0.9695758819580078,
        0.4046907424926758
      ]
    },
    {
      "mesh": 4,
      "name": "head",
      "scale": [
        2.8539528846740723,
        2.8539528846740723,
        2.8539528846740723
      ],
      "translation": [
        0.049979209899902344,
        0.9695758819580078,
        0.4046907424926758
      ]
    }
  ],
  "materials": [
    {
      "doubleSided": true,
      "extensions": {
        "KHR_materials_unlit": {}
      },
      "name": "body",
      "pbrMetallicRoughness": {
        "metallicFactor": 0,
        "roughnessFactor": 0.9
      }
    },
    {
      "doubleSided": true,
      "name": "iris_color",
      "pbrMetallicRoughness": {
        "baseColorFactor": [
          0,
          0,
          0,
          1
        ],
        "metallicFactor": 0,
        "roughnessFactor": 0.4000000059604645
      }
    },
    {
      "doubleSided": true,
      "name": "eyeliner",
      "pbrMetallicRoughness": {
        "baseColorFactor": [
          0.8000000715255737,
          0.74371337890625,
          0.31212949752807617,
          1
        ],
        "metallicFactor": 0,
        "roughnessFactor": 0.4000000059604645
      }
    },
    {
      "doubleSided": true,
      "name": "hook",
      "pbrMetallicRoughness": {
        "baseColorFactor": [
          0.7409833073616028,
          0.6845876574516296,
          0.8000000715255737,
          1
        ],
        "roughnessFactor": 0.20000000298023224
      }
    },
    {
      "doubleSided": true,
      "name": "Material",
      "pbrMetallicRoughness": {
        "baseColorFactor": [
          0,
          0.5319521427154541,
          0.8000000715255737,
          1
        ],
        "roughnessFactor": 0.19999998807907104
      }
    }
  ],
  "meshes": [
    {
      "name": "uploads files 79252 Fish Lures Binsky.002",
      "primitives": [
        {
          "attributes": {
            "POSITION": 0,
            "NORMAL": 1
          },
          "indices": 2,
          "material": 0
        }
      ]
    },
    {
      "name": "uploads files 79252 Fish Lures Binsky.004",
      "primitives": [
        {
          "attributes": {
            "POSITION": 3,
            "NORMAL": 4
          },
          "indices": 5,
          "material": 1
        }
      ]
    },
    {
      "name": "uploads files 79252 Fish Lures Binsky.005",
      "primitives": [
        {
          "attributes": {
            "POSITION": 6,
            "NORMAL": 7
          },
          "indices": 8,
          "material": 2
        }
      ]
    },
    {
      "name": "uploads files 79252 Fish Lures Binsky.006",
      "primitives": [
        {
          "attributes": {
            "POSITION": 9,
            "NORMAL": 10
          },
          "indices": 11,
          "material": 3
        }
      ]
    },
    {
      "name": "uploads files 79252 Fish Lures Binsky.001",
      "primitives": [
        {
          "attributes": {
            "POSITION": 12,
            "NORMAL": 13
          },
          "indices": 14,
          "material": 4
        }
      ]
    }
  ],
  "accessors": [
    {
      "bufferView": 0,
      "componentType": 5126,
      "count": 23823,
      "max": [
        0.1550207883119583,
        0.8334981203079224,
        2.774874210357666
      ],
      "min": [
        -0.2429201602935791,
        -1.219859004020691,
        -3.251579999923706
      ],
      "type": "VEC3"
    },
    {
      "bufferView": 1,
      "componentType": 5126,
      "count": 23823,
      "type": "VEC3"
    },
    {
      "bufferView": 2,
      "componentType": 5123,
      "count": 23979,
      "type": "SCALAR"
    },
    {
      "bufferView": 3,
      "componentType": 5126,
      "count": 147,
      "max": [
        0.1800207942724228,
        0.08465516567230225,
        2.258124351501465
      ],
      "min": [
        -0.27997922897338867,
        -0.11534488201141357,
        2.058124542236328
      ],
      "type": "VEC3"
    },
    {
      "bufferView": 4,
      "componentType": 5126,
      "count": 147,
      "type": "VEC3"
    },
    {
      "bufferView": 5,
      "componentType": 5123,
      "count": 156,
      "type": "SCALAR"
    },
    {
      "bufferView": 6,
      "componentType": 5126,
      "count": 4464,
      "max": [
        0.17002078890800476,
        0.28465521335601807,
        2.4581243991851807
      ],
      "min": [
        -0.26997920870780945,
        -0.31534481048583984,
        1.8581244945526123
      ],
      "type": "VEC3"
    },
    {
      "bufferView": 7,
      "componentType": 5126,
      "count": 4464,
      "type": "VEC3"
    },
    {
      "bufferView": 8,
      "componentType": 5123,
      "count": 4488,
      "type": "SCALAR"
    },
    {
      "bufferView": 9,
      "componentType": 5126,
      "count": 119742,
      "max": [
        0.6520208120346069,
        -0.7308101654052734,
        0.7294690608978271
      ],
      "min": [
        -0.7615792155265808,
        -3.4629201889038086,
        -4.2420454025268555
      ],
      "type": "VEC3"
    },
    {
      "bufferView": 10,
      "componentType": 5126,
      "count": 119742,
      "type": "VEC3"
    },
    {
      "bufferView": 11,
      "componentType": 5125,
      "count": 119748,
      "type": "SCALAR"
    },
    {
      "bufferView": 12,
      "componentType": 5126,
      "count": 49221,
      "max": [
        0.2999030649662018,
        0.7554612159729004,
        2.7982075214385986
      ],
      "min": [
        -0.40000882744789124,
        -1.4653449058532715,
        -0.6541030406951904
      ],
      "type": "VEC3"
    },
    {
      "bufferView": 13,
      "componentType": 5126,
      "count": 49221,
      "type": "VEC3"
    },
    {
      "bufferView": 14,
      "componentType": 5123,
      "count": 49329,
      "type": "SCALAR"
    }
  ],
  "bufferViews": [
    {
      "buffer": 0,
      "byteLength": 285876,
      "byteOffset": 0
    },
    {
      "buffer": 0,
      "byteLength": 285876,
      "byteOffset": 285876
    },
    {
      "buffer": 0,
      "byteLength": 47960,
      "byteOffset": 571752
    },
    {
      "buffer": 0,
      "byteLength": 1764,
      "byteOffset": 619712
    },
    {
      "buffer": 0,
      "byteLength": 1764,
      "byteOffset": 621476
    },
    {
      "buffer": 0,
      "byteLength": 312,
      "byteOffset": 623240
    },
    {
      "buffer": 0,
      "byteLength": 53568,
      "byteOffset": 623552
    },
    {
      "buffer": 0,
      "byteLength": 53568,
      "byteOffset": 677120
    },
    {
      "buffer": 0,
      "byteLength": 8976,
      "byteOffset": 730688
    },
    {
      "buffer": 0,
      "byteLength": 1436904,
      "byteOffset": 739664
    },
    {
      "buffer": 0,
      "byteLength": 1436904,
      "byteOffset": 2176568
    },
    {
      "buffer": 0,
      "byteLength": 478992,
      "byteOffset": 3613472
    },
    {
      "buffer": 0,
      "byteLength": 590652,
      "byteOffset": 4092464
    },
    {
      "buffer": 0,
      "byteLength": 590652,
      "byteOffset": 4683116
    },
    {
      "buffer": 0,
      "byteLength": 98660,
      "byteOffset": 5273768
    }
  ],
  "buffers": [
    {
      "uri": "lure_binsky_data.bin",
      "byteLength": 5372428
    }
  ]
}