<svg width="24" height="24" viewBox="0 0 24 24" fill="none" xmlns="http://www.w3.org/2000/svg">
<path d="M22.2896 10.5208L23.9734 1.52523C24.0754 0.98615 23.8762 0.423636 23.4859 0.154098C23.2537 -0.00387479 22.9841 -0.0437195 22.7288 0.0500328C22.4745 0.142848 22.2634 0.35379 22.1381 0.64161L18.4185 9.06479C11.124 9.73699 8.36663 19.5004 6.74513 19.5004C6.33413 19.5004 6 19.0822 6 18.5685V13.5002L7.77638 12.333C8.166 12.055 8.39963 11.5863 8.39963 11.0851V6.75145C8.39963 6.31034 8.06175 6.00002 7.69763 6.00002C7.5675 6.00002 7.434 6.03987 7.31138 6.12706L4.2 8.34993L1.08825 6.12706C0.965625 6.0394 0.832125 6.00002 0.702 6.00002C0.337875 6.00002 0 6.30988 0 6.75145V11.0851C0 11.5867 0.234 12.055 0.62325 12.333L2.4 13.5002V18.5685C2.4 21.5685 4.3455 24 6.74513 24H21C22.6567 24 24 22.3209 24 20.2499V15.0256C24 13.1922 23.2995 11.6102 22.2896 10.5208ZM22.464 3.00839L21.2224 9.63527C20.7638 9.3512 20.2808 9.1637 19.7835 9.07744L22.464 3.00839ZM22.8 20.2504C22.8 21.4912 21.9926 22.5004 21 22.5004H6.74513C5.01113 22.5004 3.6 20.7365 3.6 18.5689V12.5941L1.2 11.0078V7.9346L4.2 10.0773L7.2 7.9346V11.0172L4.8 12.5941V18.5689C4.8 19.9096 5.67263 21.0004 6.74513 21.0004C7.86263 21.0004 8.61825 19.784 9.762 17.9427C11.6029 14.9792 14.385 10.5001 19.2 10.5001C20.9029 10.5001 22.8 12.3588 22.8 15.0256V20.2504ZM16.2 16.5003C15.8685 16.5003 15.6 16.8359 15.6 17.2503C15.6 17.6647 15.8685 18.0003 16.2 18.0003C16.5315 18.0003 16.8 17.6647 16.8 17.2503C16.8 16.8359 16.5315 16.5003 16.2 16.5003Z" fill="#3F457E"/>
</svg>
